<svg height="512pt" viewBox="0 0 512 512" width="512pt" xmlns="http://www.w3.org/2000/svg"><path d="m391 361h60v151h-60zm0 0" fill="#ffb64c"/><path d="m286 90c-24.8125 0-45-20.1875-45-45s20.1875-45 45-45 45 20.1875 45 45-20.1875 45-45 45zm0 0" fill="#ffb64c"/><path d="m482 391 16.875-30 13.125 30v121h-30zm0 0" fill="#523522"/><path d="m0 391 15-30 15 30v121h-30zm0 0" fill="#714c2f"/><path d="m90 301c-24.8125 0-45-20.1875-45-45s20.1875-45 45-45 45 20.1875 45 45-20.1875 45-45 45zm0 0" fill="#ff7d43"/><path d="m331 364.601562-30 26.398438h-198.699219l60-90 93.699219 20.097656 45 9.902344zm0 0" fill="#895d3c"/><path d="m331 364.601562-30 26.398438h-45v-69.902344l45 9.902344zm0 0" fill="#714c2f"/><path d="m331 300.097656-30 30.902344h-138.699219l-60 60h-102.300781v-60h77.699219c3-3 46.5-46.5 51-51.300781 5.699219-5.398438 13.5-8.699219 21.300781-8.699219h151zm0 0" fill="#ff7d43"/><path d="m331 300.097656-30 30.902344h-45v-60h45zm0 0" fill="#ff4b00"/><path d="m444.070312 271-28.695312-15-33.28125 15h-81.09375v120h211v-120zm0 0" fill="#a0deb0"/><path d="m352.195312 83.761719c-5.699218-5.65625-13.183593-8.777344-21.105468-8.777344-10.796875 0-23.804688 6.34375-28.550782 20.523437l-26.75 96.246094-81.429687 54.285156 33.28125 49.921876 98.570313-65.714844 16.257812-63.808594c18.828125 27.328125 31.699219 72.734375 39.625 104.5625h61.976562c-13.265624-64.355469-45.183593-140.546875-91.875-187.238281zm0 0" fill="#ffb64c"/></svg>